<?xml version="1.0" encoding="UTF-8" standalone="no"?>
<svg
   xmlns:dc="http://purl.org/dc/elements/1.1/"
   xmlns:cc="http://creativecommons.org/ns#"
   xmlns:rdf="http://www.w3.org/1999/02/22-rdf-syntax-ns#"
   xmlns:svg="http://www.w3.org/2000/svg"
   xmlns="http://www.w3.org/2000/svg"
   xmlns:sodipodi="http://sodipodi.sourceforge.net/DTD/sodipodi-0.dtd"
   xmlns:inkscape="http://www.inkscape.org/namespaces/inkscape"
   version="1.1"
   id="svg6705"
   viewBox="0 0 160 33.999999"
   height="34"
   width="160"
   inkscape:version="0.91 r13725"
   sodipodi:docname="codinghard-logo.svg">
  <sodipodi:namedview
     pagecolor="#ffffff"
     bordercolor="#666666"
     borderopacity="1"
     objecttolerance="10"
     gridtolerance="10"
     guidetolerance="10"
     inkscape:pageopacity="0"
     inkscape:pageshadow="2"
     inkscape:window-width="1280"
     inkscape:window-height="773"
     id="namedview17"
     showgrid="false"
     inkscape:zoom="2.30625"
     inkscape:cx="8.0216802"
     inkscape:cy="17"
     inkscape:window-x="0"
     inkscape:window-y="27"
     inkscape:window-maximized="1"
     inkscape:current-layer="svg6705" />
  <defs
     id="defs6707" />
  <metadata
     id="metadata6710">
    <rdf:RDF>
      <cc:Work
         rdf:about="">
        <dc:format>image/svg+xml</dc:format>
        <dc:type
           rdf:resource="http://purl.org/dc/dcmitype/StillImage" />
        <dc:title />
      </cc:Work>
    </rdf:RDF>
  </metadata>
  <g
     transform="translate(0,-1018.3622)"
     id="layer1"
     style="fill:#ffa726"
     inkscape:export-xdpi="90"
     inkscape:export-ydpi="90">
    <g
       id="text4288-96-1"
       style="font-style:normal;font-variant:normal;font-weight:normal;font-stretch:normal;font-size:31.23538399px;line-height:125%;font-family:'Roboto Condensed';-inkscape-font-specification:'Roboto Condensed, Normal';text-align:start;letter-spacing:0px;word-spacing:0px;writing-mode:lr-tb;text-anchor:start;fill:#ffa726;fill-opacity:1;stroke:none;stroke-width:1px;stroke-linecap:butt;stroke-linejoin:miter;stroke-opacity:1">
      <path
         id="path7277"
         style="font-style:normal;font-variant:normal;font-weight:300;font-stretch:normal;font-family:Roboto;-inkscape-font-specification:'Roboto Light';fill:#ffa726"
         d="m 11.237924,1042.5533 q 0.869345,0 1.66243,-0.244 0.808338,-0.2593 1.433656,-0.7473 0.625317,-0.4881 1.02186,-1.2049 0.411795,-0.7169 0.472802,-1.6625 l 1.75394,0 q -0.06101,1.1744 -0.594815,2.1658 -0.518556,0.9913 -1.3879,1.7082 -0.854093,0.7168 -1.982715,1.1286 -1.128622,0.3965 -2.379258,0.3965 -1.738688,0 -3.0503301,-0.6253 -1.3116421,-0.6406 -2.2114896,-1.7539 -0.8845959,-1.1134 -1.3421454,-2.6081 -0.442298,-1.5099 -0.442298,-3.2486 l 0,-0.6405 q 0,-1.7387 0.442298,-3.2334 0.4575495,-1.5099 1.3421454,-2.608 0.8845958,-1.1134 2.1962379,-1.754 1.3268938,-0.6405 3.0503308,-0.6405 1.326893,0 2.455516,0.4118 1.143874,0.4118 1.982714,1.1743 0.854093,0.7626 1.357398,1.8607 0.503304,1.0829 0.564311,2.4251 l -1.75394,0 q -0.06101,-1.0066 -0.442298,-1.7997 -0.36604,-0.7931 -0.991358,-1.3574 -0.610066,-0.5643 -1.433655,-0.8541 -0.808338,-0.3051 -1.738688,-0.3051 -1.418404,0 -2.4097614,0.5491 -0.9761058,0.5491 -1.6014235,1.4794 -0.6253177,0.9304 -0.9150991,2.1352 -0.2745298,1.2049 -0.2745298,2.5166 l 0,0.6405 q 0,1.3269 0.2745298,2.5471 0.2897814,1.2048 0.8998474,2.1352 0.6253178,0.9151 1.6166752,1.4642 1.0066091,0.549 2.4250124,0.549 z" />
      <path
         id="path7279"
         style="font-style:normal;font-variant:normal;font-weight:300;font-stretch:normal;font-family:Roboto;-inkscape-font-specification:'Roboto Light';fill:#ffa726"
         d="m 20.2364,1035.2935 q 0,-1.7997 0.518556,-3.3248 0.533808,-1.5252 1.494662,-2.6233 0.960854,-1.1134 2.318251,-1.7387 1.357397,-0.6253 3.019827,-0.6253 1.692933,0 3.050331,0.6253 1.372648,0.6253 2.333502,1.7387 0.960854,1.0981 1.479411,2.6233 0.518556,1.5251 0.518556,3.3248 l 0,0.5033 q 0,1.7997 -0.518556,3.3249 -0.518557,1.5252 -1.479411,2.6385 -0.960854,1.0981 -2.318251,1.7235 -1.357397,0.61 -3.035079,0.61 -1.677681,0 -3.035078,-0.61 -1.357397,-0.6254 -2.333503,-1.7235 -0.960854,-1.1133 -1.494662,-2.6385 -0.518556,-1.5252 -0.518556,-3.3249 l 0,-0.5033 z m 1.830198,0.5033 q 0,1.3574 0.36604,2.5928 0.366039,1.2201 1.067615,2.1505 0.701576,0.9151 1.738689,1.4642 1.037112,0.549 2.379257,0.549 1.342146,0 2.364006,-0.549 1.037113,-0.5491 1.738689,-1.4642 0.701576,-0.9304 1.067616,-2.1505 0.366039,-1.2354 0.366039,-2.5928 l 0,-0.5033 q 0,-1.3269 -0.366039,-2.547 -0.36604,-1.2354 -1.067616,-2.1657 -0.701576,-0.9304 -1.75394,-1.4794 -1.037113,-0.5644 -2.379258,-0.5644 -1.326894,0 -2.364006,0.5644 -1.021861,0.549 -1.723437,1.4794 -0.701576,0.9303 -1.067615,2.1657 -0.36604,1.2201 -0.36604,2.547 l 0,0.5033 z" />
      <path
         id="path7281"
         style="font-style:normal;font-variant:normal;font-weight:300;font-stretch:normal;font-family:Roboto;-inkscape-font-specification:'Roboto Light';fill:#ffa726"
         d="m 38.019827,1035.385 q 0,-1.9217 0.442298,-3.4621 0.442298,-1.5557 1.265887,-2.6538 0.823589,-1.0981 1.997967,-1.6929 1.189629,-0.5948 2.669039,-0.5948 1.75394,0 3.004575,0.7016 1.265888,0.7015 2.089477,1.9369 l 0,-9.2577 1.814946,0 0,23.4265 -1.708185,0 -0.07626,-2.1962 q -0.823589,1.1743 -2.104728,1.8454 -1.265887,0.6558 -3.05033,0.6558 -1.464159,0 -2.638536,-0.61 -1.174378,-0.6254 -1.997967,-1.7235 -0.823589,-1.1133 -1.265887,-2.6538 -0.442298,-1.5404 -0.442298,-3.4011 l 0,-0.3203 z m 1.84545,0.3203 q 0,1.4489 0.289781,2.6996 0.289782,1.2353 0.884596,2.1504 0.594815,0.9151 1.494662,1.4337 0.915099,0.5186 2.165735,0.5186 0.930351,0 1.677682,-0.2136 0.762582,-0.2287 1.342145,-0.6253 0.594814,-0.3965 1.021861,-0.9456 0.442298,-0.549 0.747331,-1.1896 l 0,-7.7479 q -0.27453,-0.6253 -0.671073,-1.2048 -0.396543,-0.5796 -0.976106,-1.0219 -0.579563,-0.4575 -1.342145,-0.7168 -0.762583,-0.2746 -1.769192,-0.2746 -1.265887,0 -2.180986,0.5339 -0.915099,0.5185 -1.509914,1.4336 -0.594814,0.9151 -0.884596,2.1657 -0.289781,1.2507 -0.289781,2.6843 l 0,0.3203 z" />
      <path
         id="path7283"
         style="font-style:normal;font-variant:normal;font-weight:300;font-stretch:normal;font-family:Roboto;-inkscape-font-specification:'Roboto Light';fill:#ffa726"
         d="m 58.182511,1043.7887 -1.830199,0 0,-16.5023 1.830199,0 0,16.5023 z m -2.150483,-21.2761 q 0,-0.5185 0.335536,-0.8693 0.335536,-0.366 0.915099,-0.366 0.579563,0 0.915099,0.366 0.350788,0.3508 0.350788,0.8693 0,0.5186 -0.350788,0.8694 -0.335536,0.3508 -0.915099,0.3508 -0.579563,0 -0.915099,-0.3508 -0.335536,-0.3508 -0.335536,-0.8694 z" />
      <path
         id="path7285"
         style="font-style:normal;font-variant:normal;font-weight:300;font-stretch:normal;font-family:Roboto;-inkscape-font-specification:'Roboto Light';fill:#ffa726"
         d="m 64.893236,1027.2864 0.06101,2.8216 q 0.427046,-0.7016 0.976106,-1.2812 0.564311,-0.5795 1.250635,-0.9913 0.686324,-0.4118 1.47941,-0.6253 0.793086,-0.2288 1.677682,-0.2288 1.235384,0 2.21149,0.3355 0.976105,0.3355 1.647178,1.0676 0.686324,0.7321 1.037112,1.8912 0.36604,1.1439 0.36604,2.7758 l 0,10.7372 -1.814947,0 0,-10.7524 q 0,-1.2812 -0.274529,-2.1352 -0.27453,-0.8541 -0.777835,-1.3727 -0.503304,-0.5186 -1.235383,-0.7321 -0.716828,-0.2288 -1.601424,-0.2288 -0.976106,0 -1.769192,0.3356 -0.793085,0.3203 -1.403152,0.8693 -0.610066,0.5491 -1.052364,1.2659 -0.442298,0.7016 -0.701576,1.4489 l 0,11.3015 -1.814946,0 0,-16.5023 1.738688,0 z" />
      <path
         id="path7287"
         style="font-style:normal;font-variant:normal;font-weight:300;font-stretch:normal;font-family:Roboto;-inkscape-font-specification:'Roboto Light';fill:#ffa726"
         d="m 79.565325,1035.385 q 0,-1.9217 0.427046,-3.4621 0.442298,-1.5557 1.265887,-2.6538 0.82359,-1.0981 1.997967,-1.6929 1.189629,-0.5948 2.684291,-0.5948 1.769191,0 3.035079,0.7168 1.265887,0.7016 2.089476,1.9675 l 0.09151,-2.3793 1.708185,0 0,16.2125 q 0,1.6014 -0.472801,2.8673 -0.472802,1.2812 -1.342146,2.1658 -0.854092,0.8846 -2.074224,1.3574 -1.220133,0.4728 -2.730046,0.4728 -0.777834,0 -1.586172,-0.1831 -0.808338,-0.1677 -1.57092,-0.5185 -0.747331,-0.3508 -1.418404,-0.8846 -0.671073,-0.5186 -1.174377,-1.2354 l 1.021861,-1.0981 q 1.006609,1.2354 2.135231,1.7997 1.128622,0.5795 2.470768,0.5795 1.174377,0 2.074224,-0.366 0.915099,-0.3508 1.540417,-1.0371 0.625318,-0.6711 0.945603,-1.6472 0.335536,-0.9608 0.335536,-2.1962 l 0,-1.9217 q -0.823589,1.1438 -2.089476,1.7997 -1.265888,0.6405 -3.019828,0.6405 -1.47941,0 -2.653787,-0.61 -1.174377,-0.6254 -1.997967,-1.7235 -0.823589,-1.1133 -1.265887,-2.6538 -0.427046,-1.5404 -0.427046,-3.4011 l 0,-0.3203 z m 1.84545,0.3203 q 0,1.4489 0.289781,2.6996 0.289782,1.2353 0.884596,2.1504 0.594815,0.9151 1.494662,1.4337 0.915099,0.5186 2.165735,0.5186 0.945602,0 1.692933,-0.2288 0.762583,-0.2288 1.342146,-0.6253 0.579562,-0.4118 1.006609,-0.9609 0.427046,-0.549 0.732079,-1.2049 l 0,-7.6716 q -0.259278,-0.6405 -0.671073,-1.2201 -0.396543,-0.5948 -0.976105,-1.0371 -0.564312,-0.4575 -1.326894,-0.7168 -0.762583,-0.2746 -1.769192,-0.2746 -1.265887,0 -2.180986,0.5339 -0.915099,0.5185 -1.509914,1.4336 -0.594814,0.9151 -0.884596,2.1657 -0.289781,1.2507 -0.289781,2.6843 l 0,0.3203 z" />
      <path
         id="path7289"
         style="font-style:normal;font-variant:normal;font-weight:500;font-stretch:normal;font-family:Roboto;-inkscape-font-specification:'Roboto Medium';fill:#ffa726"
         d="m 100.79562,1029.0861 q 0.85409,-0.9914 2.01322,-1.5404 1.15913,-0.5643 2.57753,-0.5643 1.20488,0 2.19624,0.3355 0.99136,0.3355 1.69293,1.0829 0.70158,0.7321 1.08287,1.9217 0.38129,1.1744 0.38129,2.852 l 0,10.6152 -3.70615,0 0,-10.6457 q 0,-1.7081 -0.74733,-2.4097 -0.73208,-0.7168 -2.16574,-0.7168 -1.15912,0 -1.99796,0.5338 -0.82359,0.5338 -1.3269,1.4489 l 0,11.7895 -3.706149,0 0,-23.4265 3.706149,0 0,8.7239 z" />
      <path
         id="path7291"
         style="font-style:normal;font-variant:normal;font-weight:500;font-stretch:normal;font-family:Roboto;-inkscape-font-specification:'Roboto Medium';fill:#ffa726"
         d="m 124.32893,1043.7887 q -0.15252,-0.2898 -0.25928,-0.6863 -0.0915,-0.3966 -0.16777,-0.8541 -0.36604,0.3813 -0.82359,0.7168 -0.4423,0.3355 -0.99136,0.5948 -0.5338,0.244 -1.17437,0.3813 -0.62532,0.1525 -1.34215,0.1525 -1.23538,0 -2.27249,-0.366 -1.03712,-0.3813 -1.78445,-1.0371 -0.73208,-0.6711 -1.15912,-1.5709 -0.4118,-0.8999 -0.4118,-1.9523 0,-1.3268 0.50331,-2.3487 0.5033,-1.0219 1.46415,-1.7082 0.96086,-0.6863 2.34876,-1.0371 1.40315,-0.366 3.18759,-0.366 l 2.33351,0 0,-1.0829 q 0,-1.2812 -0.71683,-2.0437 -0.71683,-0.7779 -2.18099,-0.7779 -0.65582,0 -1.18963,0.1831 -0.5338,0.1677 -0.91509,0.4728 -0.36604,0.2897 -0.57957,0.7015 -0.19827,0.4118 -0.19827,0.8846 l -3.70615,0 q 0,-0.9761 0.4728,-1.8759 0.48805,-0.9151 1.37265,-1.6167 0.8846,-0.7168 2.13523,-1.1439 1.26589,-0.427 2.82156,-0.427 1.3879,0 2.56227,0.366 1.17438,0.3508 2.02847,1.0676 0.8541,0.7016 1.3269,1.7692 0.4728,1.0524 0.4728,2.4708 l 0,7.3208 q 0,2.2267 0.62532,3.5536 l 0,0.2593 -3.78241,0 z m -4.07219,-2.669 q 0.64057,0 1.18962,-0.1678 0.56432,-0.1678 1.00661,-0.4423 0.45755,-0.2745 0.79309,-0.6253 0.33554,-0.3661 0.53381,-0.7321 l 0,-3.1113 -1.99797,0 q -2.05897,0 -3.09608,0.7168 -1.03712,0.7168 -1.03712,2.0285 0,0.5033 0.16777,0.9303 0.16777,0.4271 0.50331,0.7473 0.33553,0.3051 0.80833,0.4881 0.48806,0.1678 1.12863,0.1678 z" />
      <path
         id="path7293"
         style="font-style:normal;font-variant:normal;font-weight:500;font-stretch:normal;font-family:Roboto;-inkscape-font-specification:'Roboto Medium';fill:#ffa726"
         d="m 140.00762,1030.6723 q -0.36604,-0.061 -0.74733,-0.091 -0.36604,-0.03 -0.76258,-0.03 -1.34215,0 -2.18099,0.5185 -0.83884,0.5186 -1.25063,1.4337 l 0,11.2862 -3.70616,0 0,-16.5023 3.53839,0 0.0915,1.8455 q 0.62532,-1.0067 1.54041,-1.571 0.93036,-0.5795 2.18099,-0.5795 0.32029,0 0.71683,0.076 0.41179,0.061 0.59481,0.1373 l -0.0153,3.4774 z" />
      <path
         id="path7295"
         style="font-style:normal;font-variant:normal;font-weight:500;font-stretch:normal;font-family:Roboto;-inkscape-font-specification:'Roboto Medium';fill:#ffa726"
         d="m 141.34977,1035.4155 q 0,-1.8759 0.4423,-3.4316 0.45755,-1.5557 1.29639,-2.669 0.85409,-1.1134 2.05897,-1.7235 1.20488,-0.61 2.7148,-0.61 1.37265,0 2.40976,0.4728 1.05236,0.4728 1.8302,1.3574 l 0,-8.4494 3.70615,0 0,23.4265 -3.35536,0 -0.18302,-1.7082 q -0.79309,0.9609 -1.89121,1.4947 -1.08287,0.5185 -2.54703,0.5185 -1.49466,0 -2.69954,-0.6253 -1.18963,-0.6406 -2.02847,-1.7539 -0.83884,-1.1134 -1.29639,-2.6386 -0.45755,-1.5404 -0.45755,-3.3401 l 0,-0.3203 z m 3.70615,0.3203 q 0,1.0981 0.19828,2.0742 0.21352,0.9609 0.65582,1.693 0.45755,0.7321 1.15912,1.1591 0.70158,0.4118 1.70819,0.4118 1.25063,0 2.04372,-0.5491 0.80834,-0.5643 1.28114,-1.4794 l 0,-7.0462 q -0.4728,-0.9151 -1.28114,-1.4489 -0.80834,-0.5338 -2.01322,-0.5338 -1.00661,0 -1.72344,0.427 -0.70157,0.427 -1.15912,1.1591 -0.4423,0.7321 -0.65582,1.7235 -0.21353,0.9761 -0.21353,2.0894 l 0,0.3203 z" />
    </g>
  </g>
</svg>
